Coordinates
version=1
nRows=19
nColumns=24
inDegrees=yes

Units are S.I. units (second, meters, Newtons, ...)
If the header above contains a line with 'inDegrees', this indicates whether rotational values are in degrees (yes) or radians (no).

endheader
time	pelvis_tilt	pelvis_list	pelvis_rotation	pelvis_tx	pelvis_ty	pelvis_tz	hip_flexion_r	hip_adduction_r	hip_rotation_r	knee_angle_r	ankle_angle_r	subtalar_angle_r	mtp_angle_r	hip_flexion_l	hip_adduction_l	hip_rotation_l	knee_angle_l	ankle_angle_l	subtalar_angle_l	mtp_angle_l	lumbar_extension	lumbar_bending	lumbar_rotation
      1.25000000	      0.33286001	     -7.61907181	     96.97947244	      0.21860662	      0.96955998	      0.73160577	     35.82982318	     -2.30403441	     -7.53142906	    -12.15619888	     -4.74499503	      0.00000000	      0.00000000	     -5.62199961	     -1.09458838	      0.43315371	    -20.49061650	      9.15354157	      0.00000000	      0.00000000	     -4.97138960	      0.68182474	     -8.68242554
      1.26000000	      0.86031033	     -7.68460771	     96.99622044	      0.21985090	      0.96864989	      0.71639848	     36.12307750	     -1.66413384	     -7.51689226	    -13.90294522	     -5.01704753	      0.00000000	      0.00000000	     -4.99972244	     -1.82928837	      0.57765013	    -22.96845994	      8.50395449	      0.00000000	      0.00000000	     -4.96833009	      0.91861995	     -8.66868203
      1.27000000	      1.48079997	     -7.69525017	     96.98358160	      0.22121095	      0.96802232	      0.70118677	     36.35171615	     -0.94178859	     -7.76422213	    -15.67492788	     -5.61311803	      0.00000000	      0.00000000	     -4.24611421	     -2.73965578	      0.29227267	    -25.66569978	      6.37418575	      0.00000000	      0.00000000	     -4.73563082	      2.00121950	     -8.59135408
      1.28000000	      2.07909091	     -7.73413408	     96.94405932	      0.22258299	      0.96756847	      0.68609738	     36.56210572	     -0.20209446	     -7.80242229	    -17.40214052	     -5.73823141	      0.00000000	      0.00000000	     -3.27846562	     -3.55920781	      0.25449758	    -28.63284253	      4.86519824	      0.00000000	      0.00000000	     -4.65808673	      2.57149563	     -8.52742480
      1.29000000	      2.64645448	     -7.77366462	     96.88678374	      0.22394252	      0.96733494	      0.67111447	     36.72191705	      0.51779439	     -7.76228707	    -19.08309631	     -5.67566491	      0.00000000	      0.00000000	     -2.15938244	     -4.29945346	      0.35231909	    -31.77810771	      3.17252696	      0.00000000	      0.00000000	     -4.59601354	      3.15077456	     -8.45885196
      1.30000000	      3.23792672	     -7.78613175	     96.82637030	      0.22529805	      0.96739139	      0.65622167	     36.75355296	      1.28326875	     -7.70232261	    -20.58447314	     -5.24725048	      0.00000000	      0.00000000	     -0.93055188	     -5.01756955	      0.58970415	    -35.01127834	      0.44125853	      0.00000000	      0.00000000	     -4.45902959	      4.12200741	     -8.29233576
      1.31000000	      3.79230708	     -7.80523545	     96.74975601	      0.22664588	      0.96765231	      0.64151363	     36.75149581	      2.02070908	     -7.65293463	    -22.03649744	     -4.57685476	      0.00000000	      0.00000000	      0.48050510	     -5.68187881	      0.81744981	    -38.41670949	     -1.79318134	      0.00000000	      0.00000000	     -4.41025832	      4.81475099	     -8.12323618
      1.32000000	      4.31699513	     -7.81893992	     96.67064959	      0.22795679	      0.96812566	      0.62697195	     36.63130585	      2.72188559	     -7.68369191	    -23.28479594	     -3.74768827	      0.00000000	      0.00000000	      2.04596101	     -6.30349881	      0.98912001	    -41.92160377	     -3.70930016	      0.00000000	      0.00000000	     -4.40218420	      5.37523862	     -7.97552694
      1.33000000	      4.80001454	     -7.85471471	     96.61602213	      0.22918309	      0.96879340	      0.61264559	     36.43764938	      3.39544606	     -7.58961416	    -24.35506916	     -3.40178547	      0.00000000	      0.00000000	      3.73461187	     -6.78328440	      1.39174610	    -45.40050410	     -4.36875361	      0.00000000	      0.00000000	     -4.46883905	      5.50258136	     -7.93540327
      1.34000000	      5.22484766	     -7.83248481	     96.51276228	      0.23041072	      0.96973207	      0.59838338	     36.11397184	      4.01542650	     -7.63912841	    -25.36520713	     -1.49769032	      0.00000000	      0.00000000	      5.43042573	     -7.25273242	      1.57200645	    -48.77308142	     -7.03921001	      0.00000000	      0.00000000	     -4.43713101	      6.46970999	     -7.72384516
      1.35000000	      5.60303973	     -7.85504306	     96.42789279	      0.23155606	      0.97082871	      0.58439626	     35.70762037	      4.59325764	     -7.59063777	    -26.10598590	     -1.07054090	      0.00000000	      0.00000000	      7.27220996	     -7.59106762	      1.90964025	    -52.06405940	     -7.41673341	      0.00000000	      0.00000000	     -4.51143945	      6.57708346	     -7.66848756
      1.36000000	      5.93563913	     -7.86310269	     96.36120634	      0.23260402	      0.97212469	      0.57056559	     35.21561664	      5.11419357	     -7.60591822	    -26.72404375	     -0.21488181	      0.00000000	      0.00000000	      9.16416323	     -7.87163446	      2.17185162	    -55.19874750	     -7.89231954	      0.00000000	      0.00000000	     -4.57956897	      6.82758799	     -7.58889244
      1.37000000	      6.17540222	     -7.83214109	     96.29776548	      0.23355217	      0.97366882	      0.55685367	     34.53794739	      5.54360406	     -7.61101105	    -27.10657588	      0.63457519	      0.00000000	      0.00000000	     11.01140589	     -7.99501273	      2.52970122	    -58.05467184	     -8.10969244	      0.00000000	      0.00000000	     -4.64459400	      7.05280783	     -7.51358248
      1.38000000	      6.35279549	     -7.78519045	     96.23009720	      0.23442113	      0.97535715	      0.54328525	     33.78750031	      5.91936617	     -7.57624606	    -27.40492316	      3.11041487	      0.00000000	      0.00000000	     12.86014201	     -8.04807433	      2.80556958	    -60.66314431	     -7.93187613	      0.00000000	      0.00000000	     -4.74059208	      7.79992484	     -7.17604100
      1.39000000	      6.46566353	     -7.77491701	     96.17298999	      0.23519529	      0.97719246	      0.52991698	     32.94977497	      6.20899433	     -7.59371132	    -27.43238060	      3.37023558	      0.00000000	      0.00000000	     14.75045134	     -7.97427257	      3.11148040	    -62.97419449	     -7.71450661	      0.00000000	      0.00000000	     -4.80957309	      7.79980889	     -7.12528415
      1.40000000	      6.53792993	     -7.74294559	     96.09125421	      0.23594136	      0.97910642	      0.51663264	     32.06402169	      6.48020987	     -7.52246107	    -27.44210113	      4.93529630	      0.00000000	      0.00000000	     16.59795306	     -7.87493598	      3.32341246	    -65.00080760	     -5.90238752	      0.00000000	      0.00000000	     -4.95319195	      8.00488799	     -6.80952579
      1.41000000	      6.54626014	     -7.75299524	     96.02442928	      0.23658809	      0.98112589	      0.50353289	     31.12612300	      6.65580774	     -7.52865322	    -27.24379392	      5.19056380	      0.00000000	      0.00000000	     18.45929759	     -7.67002987	      3.52744858	    -66.65676629	     -5.48022178	      0.00000000	      0.00000000	     -5.02165917	      7.97808522	     -6.73760511
      1.42000000	      6.47762840	     -7.71029677	     95.90781786	      0.23718802	      0.98324158	      0.49045986	     30.07973540	      6.80387140	     -7.35359772	    -26.97500836	      6.32448177	      0.00000000	      0.00000000	     20.18095508	     -7.39981065	      3.61580144	    -67.95992035	     -3.24596848	      0.00000000	      0.00000000	     -5.16863483	      7.91615807	     -6.43096404
      1.43000000	      6.35513238	     -7.70180085	     95.78228894	      0.23771285	      0.98538066	      0.47749631	     29.03206432	      6.85681299	     -7.30891579	    -26.62148574	      6.88816322	      0.00000000	      0.00000000	     21.87860822	     -7.05082624	      3.67042266	    -68.89753975	     -1.86613291	      0.00000000	      0.00000000	     -5.29021550	      7.77017842	     -6.05979148
